<mxfile host="app.diagrams.net" agent="Mozilla/5.0 (Windows NT 10.0; Win64; x64) AppleWebKit/537.36 (KHTML, like Gecko) Chrome/130.0.0.0 Safari/537.36" version="24.8.4">
  <diagram name="Page-1" id="kQ6XQZewhbkkca1INFuK">
    <mxGraphModel dx="2370" dy="-235" grid="1" gridSize="10" guides="1" tooltips="1" connect="1" arrows="1" fold="1" page="1" pageScale="1" pageWidth="850" pageHeight="1100" math="0" shadow="0">
      <root>
        <mxCell id="0" />
        <mxCell id="1" parent="0" />
        <mxCell id="oJ7IMUp2n4Yntl3Ja8vP-5" value="" style="edgeStyle=orthogonalEdgeStyle;rounded=0;orthogonalLoop=1;jettySize=auto;html=1;labelPosition=center;verticalLabelPosition=middle;align=center;verticalAlign=middle;" parent="1" edge="1">
          <mxGeometry x="-0.3266" y="-7" relative="1" as="geometry">
            <Array as="points">
              <mxPoint x="830" y="963" />
              <mxPoint x="830" y="1513" />
            </Array>
            <mxPoint as="offset" />
            <mxPoint x="780" y="1513.1111111111109" as="targetPoint" />
          </mxGeometry>
        </mxCell>
        <mxCell id="kUYVRa1KWEE8AAZfjODf-2" value="" style="edgeStyle=orthogonalEdgeStyle;rounded=0;orthogonalLoop=1;jettySize=auto;html=1;" parent="1" source="MAX00JCZF_27vh7YQbMN-51" target="MAX00JCZF_27vh7YQbMN-91" edge="1">
          <mxGeometry relative="1" as="geometry" />
        </mxCell>
        <mxCell id="MAX00JCZF_27vh7YQbMN-55" value="Indexing" style="rounded=1;whiteSpace=wrap;html=1;absoluteArcSize=1;arcSize=14;strokeWidth=2;" parent="1" vertex="1">
          <mxGeometry x="230" y="2263.4300000000003" width="60" height="38.13" as="geometry" />
        </mxCell>
        <mxCell id="MAX00JCZF_27vh7YQbMN-56" value="" style="edgeStyle=orthogonalEdgeStyle;rounded=0;orthogonalLoop=1;jettySize=auto;html=1;" parent="1" source="MAX00JCZF_27vh7YQbMN-55" target="MAX00JCZF_27vh7YQbMN-51" edge="1">
          <mxGeometry relative="1" as="geometry" />
        </mxCell>
        <mxCell id="MAX00JCZF_27vh7YQbMN-57" value="&lt;div&gt;Encoder&lt;/div&gt;&lt;div&gt;LLM&lt;/div&gt;" style="html=1;align=center;verticalAlign=middle;dashed=0;whiteSpace=wrap;" parent="1" vertex="1">
          <mxGeometry x="130" y="2268.74" width="60" height="27.5" as="geometry" />
        </mxCell>
        <mxCell id="MAX00JCZF_27vh7YQbMN-58" value="" style="edgeStyle=orthogonalEdgeStyle;rounded=0;orthogonalLoop=1;jettySize=auto;html=1;" parent="1" source="MAX00JCZF_27vh7YQbMN-57" target="MAX00JCZF_27vh7YQbMN-55" edge="1">
          <mxGeometry relative="1" as="geometry" />
        </mxCell>
        <mxCell id="MAX00JCZF_27vh7YQbMN-61" value="" style="edgeStyle=orthogonalEdgeStyle;rounded=0;orthogonalLoop=1;jettySize=auto;html=1;" parent="1" source="MAX00JCZF_27vh7YQbMN-59" target="MAX00JCZF_27vh7YQbMN-55" edge="1">
          <mxGeometry relative="1" as="geometry" />
        </mxCell>
        <mxCell id="MAX00JCZF_27vh7YQbMN-85" value="&lt;div&gt;Online&lt;/div&gt;" style="shape=umlFrame;whiteSpace=wrap;html=1;pointerEvents=0;recursiveResize=0;container=1;collapsible=0;width=74;dashed=1;fillColor=none;height=30;" parent="1" vertex="1">
          <mxGeometry x="270" y="2370" width="540" height="100" as="geometry" />
        </mxCell>
        <mxCell id="MAX00JCZF_27vh7YQbMN-86" value="Generated&lt;div&gt;Design&lt;/div&gt;&lt;div&gt;Decision&lt;/div&gt;" style="text;html=1;align=center;verticalAlign=middle;resizable=0;points=[];autosize=1;strokeColor=none;fillColor=none;" parent="MAX00JCZF_27vh7YQbMN-85" vertex="1">
          <mxGeometry x="450" y="25" width="80" height="60" as="geometry" />
        </mxCell>
        <mxCell id="MAX00JCZF_27vh7YQbMN-87" value="&lt;div&gt;Fine-Tuned&lt;/div&gt;&lt;div&gt;Generative&lt;/div&gt;&lt;div&gt;LLM&lt;/div&gt;" style="html=1;align=center;verticalAlign=middle;dashed=0;whiteSpace=wrap;" parent="MAX00JCZF_27vh7YQbMN-85" vertex="1">
          <mxGeometry x="342.5" y="30" width="70" height="50" as="geometry" />
        </mxCell>
        <mxCell id="MAX00JCZF_27vh7YQbMN-88" value="" style="edgeStyle=orthogonalEdgeStyle;rounded=0;orthogonalLoop=1;jettySize=auto;html=1;" parent="MAX00JCZF_27vh7YQbMN-85" source="MAX00JCZF_27vh7YQbMN-87" target="MAX00JCZF_27vh7YQbMN-86" edge="1">
          <mxGeometry relative="1" as="geometry" />
        </mxCell>
        <mxCell id="MAX00JCZF_27vh7YQbMN-89" value="" style="edgeStyle=orthogonalEdgeStyle;rounded=0;orthogonalLoop=1;jettySize=auto;html=1;" parent="MAX00JCZF_27vh7YQbMN-85" source="MAX00JCZF_27vh7YQbMN-90" target="MAX00JCZF_27vh7YQbMN-91" edge="1">
          <mxGeometry relative="1" as="geometry" />
        </mxCell>
        <mxCell id="MAX00JCZF_27vh7YQbMN-90" value="&lt;div&gt;User&lt;/div&gt;&lt;div&gt;Prompt&lt;/div&gt;" style="text;html=1;align=center;verticalAlign=middle;resizable=0;points=[];autosize=1;strokeColor=none;fillColor=none;" parent="MAX00JCZF_27vh7YQbMN-85" vertex="1">
          <mxGeometry x="15" y="37.5" width="60" height="40" as="geometry" />
        </mxCell>
        <mxCell id="MAX00JCZF_27vh7YQbMN-91" value="Prompt&lt;div&gt;Processing&lt;/div&gt;" style="rounded=1;whiteSpace=wrap;html=1;absoluteArcSize=1;arcSize=14;strokeWidth=2;" parent="MAX00JCZF_27vh7YQbMN-85" vertex="1">
          <mxGeometry x="110" y="35" width="75" height="45" as="geometry" />
        </mxCell>
        <mxCell id="MAX00JCZF_27vh7YQbMN-92" value="Few Shot&lt;div&gt;Prompt&lt;/div&gt;" style="edgeStyle=orthogonalEdgeStyle;rounded=0;orthogonalLoop=1;jettySize=auto;html=1;exitX=1;exitY=0.5;exitDx=0;exitDy=0;labelPosition=center;verticalLabelPosition=middle;align=center;verticalAlign=middle;" parent="MAX00JCZF_27vh7YQbMN-85" source="MAX00JCZF_27vh7YQbMN-91" target="MAX00JCZF_27vh7YQbMN-87" edge="1">
          <mxGeometry relative="1" as="geometry">
            <mxPoint x="185" y="-140" as="sourcePoint" />
            <Array as="points">
              <mxPoint x="240" y="55" />
              <mxPoint x="240" y="55" />
            </Array>
          </mxGeometry>
        </mxCell>
        <mxCell id="MAX00JCZF_27vh7YQbMN-115" value="&lt;div&gt;Offline&lt;/div&gt;" style="shape=umlFrame;whiteSpace=wrap;html=1;pointerEvents=0;recursiveResize=0;container=0;collapsible=0;width=74;dashed=1;fillColor=none;height=30;flipH=1;" parent="1" vertex="1">
          <mxGeometry x="-20" y="2080" width="860" height="270" as="geometry" />
        </mxCell>
        <mxCell id="yH3GCbkgQ_Q7-c-e5r13-1" value="Retrieve Similar&lt;div&gt;Design Decisions&lt;/div&gt;" style="edgeStyle=orthogonalEdgeStyle;rounded=0;orthogonalLoop=1;jettySize=auto;html=1;" parent="1" source="MAX00JCZF_27vh7YQbMN-91" target="MAX00JCZF_27vh7YQbMN-51" edge="1">
          <mxGeometry relative="1" as="geometry" />
        </mxCell>
        <mxCell id="AiBidHKG6cALutkPIfti-1" style="edgeStyle=orthogonalEdgeStyle;rounded=0;orthogonalLoop=1;jettySize=auto;html=1;entryX=0.5;entryY=0;entryDx=0;entryDy=0;" parent="1" source="MAX00JCZF_27vh7YQbMN-66" target="MAX00JCZF_27vh7YQbMN-87" edge="1">
          <mxGeometry relative="1" as="geometry" />
        </mxCell>
        <mxCell id="MAX00JCZF_27vh7YQbMN-46" value="Dataset of&lt;div&gt;Architecture&lt;/div&gt;&lt;div&gt;Decision&lt;/div&gt;&lt;div&gt;Records&lt;/div&gt;" style="shape=cylinder3;whiteSpace=wrap;html=1;boundedLbl=1;backgroundOutline=1;size=6.5116093953451255;" parent="1" vertex="1">
          <mxGeometry y="2114.99" width="90" height="70" as="geometry" />
        </mxCell>
        <mxCell id="MAX00JCZF_27vh7YQbMN-51" value="Vector DB&lt;div&gt;of&amp;nbsp;&lt;span style=&quot;background-color: initial;&quot;&gt;Previous&lt;/span&gt;&lt;div&gt;&lt;div&gt;Design&amp;nbsp;&lt;span style=&quot;background-color: initial;&quot;&gt;Decision&lt;/span&gt;&lt;/div&gt;&lt;/div&gt;&lt;/div&gt;" style="shape=cylinder3;whiteSpace=wrap;html=1;boundedLbl=1;backgroundOutline=1;size=8.363479614257756;" parent="1" vertex="1">
          <mxGeometry x="365" y="2250" width="105" height="65" as="geometry" />
        </mxCell>
        <mxCell id="MAX00JCZF_27vh7YQbMN-52" value="Prompt&lt;div&gt;Processing&lt;/div&gt;" style="rounded=1;whiteSpace=wrap;html=1;absoluteArcSize=1;arcSize=14;strokeWidth=2;" parent="1" vertex="1">
          <mxGeometry x="380" y="2127.4900000000002" width="75" height="45" as="geometry" />
        </mxCell>
        <mxCell id="MAX00JCZF_27vh7YQbMN-59" value="Context-&lt;div&gt;Decision&lt;/div&gt;&lt;div&gt;pairs&lt;/div&gt;" style="shape=cylinder3;whiteSpace=wrap;html=1;boundedLbl=1;backgroundOutline=1;size=6.74307250976554;" parent="1" vertex="1">
          <mxGeometry x="230" y="2116.8700000000003" width="60" height="66.25" as="geometry" />
        </mxCell>
        <mxCell id="MAX00JCZF_27vh7YQbMN-60" value="Context" style="edgeStyle=orthogonalEdgeStyle;rounded=0;orthogonalLoop=1;jettySize=auto;html=1;" parent="1" source="MAX00JCZF_27vh7YQbMN-59" target="MAX00JCZF_27vh7YQbMN-52" edge="1">
          <mxGeometry relative="1" as="geometry" />
        </mxCell>
        <mxCell id="MAX00JCZF_27vh7YQbMN-62" value="Data&lt;div&gt;Cleaning&lt;/div&gt;" style="rounded=1;whiteSpace=wrap;html=1;absoluteArcSize=1;arcSize=14;strokeWidth=2;" parent="1" vertex="1">
          <mxGeometry x="130" y="2130.9300000000003" width="60" height="38.13" as="geometry" />
        </mxCell>
        <mxCell id="MAX00JCZF_27vh7YQbMN-63" value="" style="edgeStyle=orthogonalEdgeStyle;rounded=0;orthogonalLoop=1;jettySize=auto;html=1;entryX=0;entryY=0.5;entryDx=0;entryDy=0;entryPerimeter=0;" parent="1" source="MAX00JCZF_27vh7YQbMN-62" target="MAX00JCZF_27vh7YQbMN-59" edge="1">
          <mxGeometry relative="1" as="geometry">
            <mxPoint x="175" y="2131.7400000000002" as="targetPoint" />
          </mxGeometry>
        </mxCell>
        <mxCell id="MAX00JCZF_27vh7YQbMN-64" value="Training&lt;div&gt;Data with&lt;/div&gt;&lt;div&gt;Few shot&lt;/div&gt;&lt;div&gt;prompt&lt;/div&gt;" style="shape=cylinder3;whiteSpace=wrap;html=1;boundedLbl=1;backgroundOutline=1;size=6.511596679687557;" parent="1" vertex="1">
          <mxGeometry x="490" y="2110" width="70" height="80" as="geometry" />
        </mxCell>
        <mxCell id="MAX00JCZF_27vh7YQbMN-65" value="" style="edgeStyle=orthogonalEdgeStyle;rounded=0;orthogonalLoop=1;jettySize=auto;html=1;" parent="1" source="MAX00JCZF_27vh7YQbMN-52" target="MAX00JCZF_27vh7YQbMN-64" edge="1">
          <mxGeometry relative="1" as="geometry" />
        </mxCell>
        <mxCell id="MAX00JCZF_27vh7YQbMN-66" value="&amp;nbsp;Genarative LLM&lt;div&gt;Fine Tuning&lt;/div&gt;" style="rounded=1;whiteSpace=wrap;html=1;absoluteArcSize=1;arcSize=14;strokeWidth=2;" parent="1" vertex="1">
          <mxGeometry x="610" y="2123.75" width="75" height="52.5" as="geometry" />
        </mxCell>
        <mxCell id="MAX00JCZF_27vh7YQbMN-67" value="" style="edgeStyle=orthogonalEdgeStyle;rounded=0;orthogonalLoop=1;jettySize=auto;html=1;" parent="1" source="MAX00JCZF_27vh7YQbMN-64" target="MAX00JCZF_27vh7YQbMN-66" edge="1">
          <mxGeometry relative="1" as="geometry" />
        </mxCell>
        <mxCell id="MAX00JCZF_27vh7YQbMN-68" value="Base&lt;div&gt;Generative&lt;/div&gt;&lt;div&gt;LLM&lt;/div&gt;" style="html=1;align=center;verticalAlign=middle;dashed=0;whiteSpace=wrap;" parent="1" vertex="1">
          <mxGeometry x="730" y="2124.9900000000002" width="70" height="50" as="geometry" />
        </mxCell>
        <mxCell id="MAX00JCZF_27vh7YQbMN-69" value="" style="edgeStyle=orthogonalEdgeStyle;rounded=0;orthogonalLoop=1;jettySize=auto;html=1;" parent="1" source="MAX00JCZF_27vh7YQbMN-68" target="MAX00JCZF_27vh7YQbMN-66" edge="1">
          <mxGeometry relative="1" as="geometry" />
        </mxCell>
        <mxCell id="MAX00JCZF_27vh7YQbMN-53" style="edgeStyle=orthogonalEdgeStyle;rounded=0;orthogonalLoop=1;jettySize=auto;html=1;" parent="1" source="MAX00JCZF_27vh7YQbMN-51" target="MAX00JCZF_27vh7YQbMN-52" edge="1">
          <mxGeometry relative="1" as="geometry">
            <mxPoint x="350" y="2195" as="sourcePoint" />
          </mxGeometry>
        </mxCell>
        <mxCell id="MAX00JCZF_27vh7YQbMN-54" value="Retrieve Similar&lt;div&gt;Design Decision&lt;/div&gt;" style="edgeStyle=orthogonalEdgeStyle;rounded=0;orthogonalLoop=1;jettySize=auto;html=1;" parent="1" source="MAX00JCZF_27vh7YQbMN-52" target="MAX00JCZF_27vh7YQbMN-51" edge="1">
          <mxGeometry relative="1" as="geometry">
            <mxPoint x="350" y="2195" as="targetPoint" />
          </mxGeometry>
        </mxCell>
        <mxCell id="MAX00JCZF_27vh7YQbMN-45" style="edgeStyle=orthogonalEdgeStyle;rounded=0;orthogonalLoop=1;jettySize=auto;html=1;entryX=0;entryY=0.5;entryDx=0;entryDy=0;" parent="1" source="MAX00JCZF_27vh7YQbMN-46" target="MAX00JCZF_27vh7YQbMN-62" edge="1">
          <mxGeometry relative="1" as="geometry" />
        </mxCell>
      </root>
    </mxGraphModel>
  </diagram>
</mxfile>
